<svg id="Capa_1" enable-background="new 0 0 512 512" height="512" viewBox="0 0 512 512" width="512" xmlns="http://www.w3.org/2000/svg"><path d="m219.895 371.46v77.13h-150.735v-72.484h15.022l60.346-2.323 45.324-1.743v-.58z" fill="#fabc00"/><path d="m219.895 108.254v87.905h-150.735v-87.905c0-34.99 16.504-67.346 44.153-86.554l31.215-21.7 31.225 21.701c27.639 19.207 44.142 51.563 44.142 86.553z" fill="#fabc00"/><path d="m219.895 108.254v87.905h-75.367v-196.159l31.225 21.701c27.639 19.207 44.142 51.563 44.142 86.553z" fill="#ff8908"/><path d="m219.895 371.46v77.13h-75.367v-74.807l45.324-1.743v-.58z" fill="#ff8908"/><path d="m237.791 203.32v183.161h-186.526v-183.161c0-20.509 16.684-37.203 37.193-37.203h112.14c20.509 0 37.193 16.694 37.193 37.203z" fill="#f4d34e"/><path d="m51.265 425.116h186.526v86.884h-186.526z" fill="#f4d34e"/><path d="m237.791 203.32v183.161h-93.263v-220.364h56.07c20.509 0 37.193 16.694 37.193 37.203z" fill="#ffa41f"/><path d="m144.528 425.116h93.263v86.884h-93.263z" fill="#ffa41f"/><path d="m442.84 371.46v77.13h-150.735v-72.484h15.021l60.346-2.323 45.325-1.743v-.58z" fill="#fabc00"/><path d="m442.84 108.254v87.905h-150.735v-87.905c0-34.99 16.504-67.346 44.153-86.554l31.214-21.7 31.225 21.701c27.639 19.207 44.143 51.563 44.143 86.553z" fill="#fabc00"/><path d="m442.84 108.254v87.905h-75.367v-196.159l31.225 21.701c27.638 19.207 44.142 51.563 44.142 86.553z" fill="#ff8908"/><path d="m442.84 371.46v77.13h-75.368v-74.807l45.325-1.743v-.58z" fill="#ff8908"/><path d="m460.735 203.32v183.161h-186.526v-183.161c0-20.509 16.684-37.203 37.193-37.203h112.14c20.509 0 37.193 16.694 37.193 37.203z" fill="#f4d34e"/><path d="m274.209 425.116h186.526v86.884h-186.526z" fill="#f4d34e"/><g fill="#ffa41f"><path d="m460.735 203.32v183.161h-93.263v-220.364h56.07c20.509 0 37.193 16.694 37.193 37.203z"/><path d="m367.472 425.116h93.263v86.884h-93.263z"/></g></svg>